# xmcd
#
# Track frame offsets:
# 150
# 15000
# 30189
# 47237
# 60881
# 75201
# 111291
#
# Disc length: 2038 seconds
#
# Revision: 1
# Processed by: cddbd v1.5.2PL0 Copyright (c) Steve Scherf et al.
# Submitted via: CedeCatalogueitor 2.6.0.6 http://personales.ya.com/cdcatalogueitor
#
DISCID=3807f407
DTITLE=Ipanema - Me Me Me
DYEAR=1900
DGENRE=
TTITLE0=Nervosa
TTITLE1=White Cat In A Snow Storm
TTITLE2=Burkina Faso
TTITLE3=Flag Burner
TTITLE4=Lockjaw
TTITLE5=Attrition
TTITLE6=Bonus Video
EXTD=
EXTT0=
EXTT1=
EXTT2=
EXTT3=
EXTT4=
EXTT5=
EXTT6=
PLAYORDER=
